<?xml version="1.0" encoding="UTF-8"?>
<svg enable-background="new 0 0 4838.2964 5415.645" version="1.1" viewBox="0 0 4838.3 5415.6" xmlns="http://www.w3.org/2000/svg">
 <path d="m4652.6 4965.7c-2.2793 16.635-0.626 8.3823-7.73 37.351-4.9087 9.3491-3.1079 5.5356-7.8804 16.49 0.9414 1.9526 0.5415-0.521 1.6201 14.54-3.3877 16.584-1.0967 9.3628-10.66 32.21-7.5732 17.607-4.2739 12.807-21.54 37.05-9.8853 8.2607-5.876 5.2158-17.72 13.28-19.418 5.7173-10.9 2.7114-37.99 13.67-10.585 20.594-7.1997 15.503-15.07 23.55-15.552 11.336-10.806 8.4365-21.26 13.33-13.609 4.3179-9.0591 1.5908-19.55 12.61-5.7593 4.3193-1.8037 1.7373-17.62 11.18-17.26 6.7192-0.9912 3.5483-69.19 8.8804-410.77 5.8696-1179.2 7.979-1179.3 7.98-136.64-2.8032-98.704 1.3853-180.59-9.9199-70.44-3.9673-63.209-3.7993-78.441-9.6504-23.228-17.426 10.634 4.7329-98.841-46.23-40.731-14.019-32.651-10.617-42.21-16.39-30.566-10.728-20.633-7.4126-44.121-14.831-75.195-14.832-39.004-13.602-69.06-14.53-93.097-28.466-3.5205-7.5273-133.33-36.931-64.587-24.959-40.835-19.344-171.55-47.36-51.727-6.0244-36.567-3.3354-89.591-15.15-37.631-8.4653-31.893-1.7754-86.631-12.96-79.858-12.348-105.43-20.686-109.6-21.36-92.765-23.183-225.46-68.042-319.54-107.22-48.661-15.956-50.914-17.998-76.39-18.73-40.553-30.474-13.804-15.834-46.99-34.78-196.17-95.248-199.48-104.57-296.06-169.39-145.46-94.461-117.52-68.735-206.7-146.88-20.697-28.22 5.3115 6.6846-47.52-48.73-72.817-70.398-62.25-76.602-122.46-155.5-40.929-63.966-33.416-56.221-39.49-57.881-19.609-10.99-15.602-8.6641-26.19-19.58-10.262-16.345-8.5365-13.279-9.7501-16.48l-5.04-4.8999c-13.136 4.6357-2.695 1.2466-17.21 3.4297-6.4361 28.161-2.5722 9.0625-7.9001 26.11-6.0249 8.1494-3.3887 6.1816-11.32 9.1401-5.007 14.753-6.9352 17.457-9.71 59.831-33.555 110.03-28.868 64.681-53.7 175.22-10.401 37.058-6.165 23.552-18.72 58.781-32.817 122.08-32.061 127.13-35.16 187.91 4.571 30.876 2.6575 17.548 8.4901 59.36 11.004 29.891 6.6648 20.228 18.85 43 17.292 35.893 10.363 22.768 30.02 57.46-6.0759-4.0317-9.809-10.038 22.7 32.06 34.085 48.185 40.377 45.13 63.631 82.571 15.801 18.374 11.906 14.753 18.56 18.86 22.897 8.4009 15.063 7.2075 34.58 6.2002 34.843-1.0439 24.642-2.271 45.99 4.5298 21.029 12.718 10.418 4.6284 48.1 37.451 15.179 15.608 12.367 12.624 15.14 15.85 28.269 42.375 34.909 63.787 39.19 74.69 0.7588 17.704 2.2991 11.217-10.74 47.76-25.696 31.384-38.697 23.68-389.35 24.88-50.069-0.3867-57.606 1.2397-110.7-8.3501-19.774-2.0908-12.602-0.8159-31.15-5.8701-29.923-14.389-34.985-24.684-51.73-48.86-13.905-26.877-9.5315-16.105-18.57-47.47-15.659-80.709-14.402-74.358-14.76-75.821-29.962-87.222-17.385-59.628-53.93-178.87-24.312-71.244-19.384-59.392-25.65-68.411-24.216-47.029-17.739-33.328-29.6-61.81-41.682-85.115-39.92-81.189-42.75-105.19 1.0956-13.701 1.972-8.5444-4.64-22.56-24.588-53.774-11.216-107.88-1.05-153.1 10.941-51.109 8.5976-30.515 12.96-99.11 0.5892-30.079-0.8281-64.18 0.5-91.861 1.8737-78.836-1.2251-86.446-7.4801-120.79-10.198-83.565-1.2707-49.654-10.52-86.601-5.7305-21.524-1.7803-10.135-18.42-51.92-7.1771-28.671-5.1296-16.388-8.5501-54.661-6.2763-24.894-9.959-41.128-19.97-69.911-20.485-68.572-8.8497-26.478-28.98-136.94-25.073-114.87-1.5083-40.379-30.07-176.73-41.12-249.82-34.52-246.6-37.94-319.24-3.1918-20.323-0.1169-34.244 0.23-79.29 9.3079-74.406 7.4908-61.562 13.6-79.351 11.396-37.25 6.1503-22.255 23.53-66.161 56.476-167.28 21.427-70.076 125.15-223.18 73.998-96.823 48.718-63.251 85.141-127.63 20.583-50.814 15.722-34.544 22.57-72.21 0.0511-52.867-1.1536-23.656 1.13-63.291-4.2819-32.328-1.3273-19.382-13.76-57.1-14.729-40.982-9.4379-28.901-23.19-54.341-16.372-40.221-11.725-27.644-21.03-56.151-18.785-42.924-10.844-35.037-34.75-105.74-2.9101-24.314-0.866-13.233-9.5401-49.68-2.976-24.092-26.674-153.61-26.7-153.75-9.0637-27.358-12.147-59.273-23.37-152.83-15.948-152.51-16.383-111.63-31.41-212.71-7.2474-66.09-6.1867-48.314-5.6-75.38-2.2686-28.999-1.0929-18.909-4.9701-44.451-18.088-133.82-11.728-173.85-5.97-282.61 7.8506-96.86 4.8316 9.2448 8.77-161.38 25.961-164.36 17.441-114.49 49.56-227.15 9.6241-31.081 2.625-17.365 73.231-163.43 49.393-89.967 37.056-69.61 76.481-127.38 69.67-94.565 62.363-85.626 68.381-88.131 73.939-81.418 27.789-30.518 134.96-131.52 77.132-58.066 49.637-44.102 162.88-116.65 108.69-48.22 102.07-43.161 146.67-44.11 25.13 0.392 25.135-1.6738 53.5 12.12 17.621 8.4888 10.465 4.0262 31.62 20.31 19.208 17.534 11.799 10.217 32.48 32.4 14.953 20.377 11.037 13.808 17.95 29.22 2.6245 5.6886 1.7212 2.1707 3.23 14.9-4.536 19.499-2.4392 21.775-44.87 64.86-21.72 15.333-8.1119 4.3609-58.87 48.67-21.708 21.72-13.223 13.905-36.85 34.26-97.951 73.599-43.291 35.524-95.371 71.96-24.453 23.857-108.66 96.54-143.91 158.11-24.356 61.712-11.633 36.653-29.63 67.471-13.2 20.14-6.5607 8.1152-30.11 55.43-17.491 32.615-9.6161 13.828-35.26 86.26-44.596 177.14-41.639 196.88-51.32 349.26-0.036 35.869-0.5244 23.003 1.88 56.4 0.2428 118.58 7.3246 47.251 4.93 150.96 3.2194 53.812 10.146 67.809 19.36 124.61 6.0549 62.115 11.307 67.494 11.37 104.85 1.6988 23.316 10.881 50.902 9.1901 83.701 1.599 14.059-0.1631 5.0043 8.63 40.78 4.3701 26.243 3.2257 20.698 5.3701 28.25 42.567 171.23 15.997 71.418 40.27 168.13 37.902 114.53 32.298 96.845 59.98 157.08 48.897 80.549 27.998 62.539 77.051 136.73 12.592 21.923 6.4463 12.802 27.77 40.45 30.533 32.874 18.348 22.161 52.78 47.55 42.631 21.452 18.752 11.063 86.481 35.02 62.935 21.088 42.88 11.311 99.171 42.15 15.338 10.93 6.608 6.2432 40.03 20.86 146.56 80.847 65.599 28.911 157.79 82.94 25.463 14.302 34.957 17.338 62.02 36.651 17.037 9.5317 76.316 42.758 97.301 57.91 74.845 59.59 28.84 15.792 103.78 85.53 73.312 91.745 36.157 34.809 105.85 131.46 47.084 63.433 43.349 58.424 63.971 102.02 43.97 76.798 41.515 88.434 100.32 214.57 60.211 151.92 48.872 143.85 77.131 217.11 12.482 26.597 7.8633 15.931 20.19 46.2 22.315 48.264 39.663 63.129 73.131 98.441 30.432 29.615 29.37 28.603 29.47 28.67 41.038 32.329 29.617 24.235 47.98 35.09 82.959 57.082 58.008 46.711 113.83 64.82 35.246 9.1614 38.577 12.915 76.131 2.2302 45.688 0.448 64.51-3.5354 115.37-5.5901 27.686-1.8601 18.63-2.4277 40.17 1.8301 24.199 1.259 10.688 1.2463 61.8-0.23 28.796 4.1062 17.742 1.1279 48.45 13.92 23.36 10.264 15.322 7.4277 53.83 20.05 12.557 0.7051 6.9421 1.8203 25.08-5.7302 16.976-7.1782 10.253-3.9414 29.61-14.49 37.727-33.018 30.832-26.875 43.11-39.87-1.2993-23.545-7.8525-88.868 11.48-142.54 11.662-28.428 5.666-9.9246 24.22-78.541 10.227-63.114 24.371-110 41.35-166.92 13.626-36.733 7.8071-23.646 25.88-56.78 18.169-24.565 11.593-17.198 28.82-33.09 31.64-18.524 35.359-23.092 62.2-50.16 14.621-13.621 10.539-10.615 17.82-13.89 4.8735-1.5862 2.8721-1.7756 8.8601 1.3201 11.571 6.3713 7.4187 2.823 18.05 16.25 2.3943 3.5225 0.0947-0.8926 12.72 25.6 15.958 42.146 8.8284 38.312 21.7 97.771 1.7432 24.938 1.1565 20.564 2.53 24.15 9.9006 16.405 6.5056 11.557 14.96 21.8 13.361 22.49 1.4595-2.6194 35.21 49.61 9.4653 11.467 0.9429 2.8484 37.73 26.29 32.132 22.961 29.539 21.802 77.611 25.24 41.065-2.7756 2.5166 3.4504 65.691-7.5698 56.166-6.2097 129.24-15.165 187.21-9.6504 20.483 0.5847 17.303 0.4331 19.27 0.7002 23.687 6.5483 11.873 1.9233 53.51 21.59 90.948 46.464 10.001 10.111 105.61 57.341 53.649 16.92 23.053 6.873 157.58 25.23 51.047 5.165 49.361 6.3066 58.31 11.04 7.8491 6.1135 5.4551 1.9473 9.1599 13.55 11.578 82.862 7.4739 54.26 5.9302 86.471 10.549 54.011 8.9924 43.416 9.0598 54.47-1.5022 26.761-2.0059 15.825-0.3799 29.6 0.0632 16.209 0.9204 9.6077-4.3 29.18-7.4424 22.587-5.4714 16.967-8.75 25.47 6.5608 5.7422 3.948 3.614 11.52 9.29 8.4705 13.555 5.5034 7.1296 12.87 28.99 1.8884 22.146 1.8379 13.073-0.1899 40.18-6.3435 18.335-4.082 13.151-9.9602 23.56-24.392 25.916-13.382 15.902-49.31 43.97-70.8 42.624-106.67 73.655-175.8 116.62-38.183 27.886-29.625 21.347-42.48 31.9-38.918 34.825-25.33 21.023-59.821 59.871-82.626 97.807-22.69 26.047-27.04 33.14-3.0066 7.9468 0.0032 3.561-13.67 18.23-22.972 22.384-16.828 16.032-28.06 28.75-23.135 35.577-18.137 27.177-24.96 40.53-41.91 75.846-13.789 16.231-45.78 79.831-4.4705 18.776-4.0381 10.684-1.1101 36.04 2.7957 15.665 1.0962 7.8052 7.8401 35.62 28.006 71.55 28.72 60.881 40.43 89.921 14.669 28.115-0.7119 6.3413 21.33 47.44 12.228 32.472 8.3955 20.497 17.11 52.37 3.1704 40.373 0.3252-4.1709 10.13 71.861 0.0503 0.1006-0.1865-0.6382 7.6299 25.51 7.3762 22.321 14.549 44.058 7.2803 22.01 9.229 18.626 5.3826 12.313 16.59 27.891 15.46 13.956 14.988 14.317 19.72 15.5 11.099 3.2197 76.879 22.615 80.391 23.79 49.194 10.67 25.649 3.1479 83.171 19.28 43.345 9.1494 83.032 18.632 164.27 21.6 98.438 5.6196 120.45 4.1895 151.98 3.5103 47.367 8.7544 36.338 6.0762 53.3 11.77 78.62 29.669 64.587 5.2456 191.72 6.6099 37.4-12.366 22.774-6.5337 64.331-26.25 31.469-18.951 20.836-10.144 46.99-37.57 40.782-55.133 40.704-55.136 79.19-87.071 18.288-14.892 12.141-11.353 27.201-16.49 15.32-7.6387 12.974-9.0815 41.51-7.9102 20.589 5.2588 13.789 1.8486 30.12 14.15 12.335 14.292 9.3735 9.9312 13.78 19.55 6.5493 10.628 4.9487 7.4678 7.4399 14.25 8.3169 20.594 6.8135 14.47 7.3804 27.5 2.2002 3.8936 1.2173 0.6172 4.3203 17.12-4.0654 27.689-1.9883 17.584-9.4404 44.081-10.818 34.027-5.8008 21.235-20.61 50.7-9.543 12.124-5.6304 8.0972-17.32 17.29-5.7573 4.4707-5.1602 3.9531-5.2598 4.2104 0.6792 1.9448 0.0225 0.7856 3.2998 5.3198 2.0532 17.612 1.8442 8.0195 0.5601 43.73-2.3521 23.567-0.7207 16.832-6.7402 30.47 0.1123 1.4863-2.3711 1.4028 16.52-1.2402 22.562-1.7881 14.637-0.6631 34.861-4.6797 29.844-2.4141 53.116-5.0122 84.42 3.8296 11.862 3.7148 6.0332 0.8853 26.36 13.28 17.454 17.952 13.79 14.725 18.84 17.75l4.4507 10.43z"/>
 <path d="m4838.3 5415.6"/>
 <path d="m0 0"/>
</svg>
